{
    "asset" : {
        "generator" : "Khronos glTF Blender I/O v1.8.19",
        "version" : "2.0"
    },
    "scene" : 0,
    "scenes" : [
        {
            "name" : "Scene",
            "nodes" : [
                0,
                1,
                2,
                3,
                4,
                5,
                6
            ]
        }
    ],
    "nodes" : [
        {
            "mesh" : 0,
            "name" : "\u52fa\u5b50",
            "rotation" : [
                0,
                0,
                -1,
                -1.6292068494294654e-07
            ],
            "translation" : [
                0.4791138768196106,
                1.0365256071090698,
                0
            ]
        },
        {
            "mesh" : 1,
            "name" : "\u676f\u5b50",
            "rotation" : [
                0,
                0,
                -1,
                -1.6292068494294654e-07
            ],
            "translation" : [
                -2.367971181869507,
                1.8421969413757324,
                -3.6910881996154785
            ]
        },
        {
            "mesh" : 2,
            "name" : "\u5e3d\u5b50",
            "rotation" : [
                0,
                0,
                -1,
                -1.6292068494294654e-07
            ],
            "scale" : [
                -2.1176249980926514,
                -2.1176249980926514,
                -2.1176249980926514
            ],
            "translation" : [
                2.6075284481048584,
                0.875760555267334,
                -3.639512300491333
            ]
        },
        {
            "mesh" : 3,
            "name" : "\u67f1\u4f53",
            "rotation" : [
                0,
                0,
                -0.7071067690849304,
                0.7071068286895752
            ]
        },
        {
            "mesh" : 4,
            "name" : "\u67f1\u4f53.001",
            "rotation" : [
                0,
                0,
                -0.7071067690849304,
                0.7071068286895752
            ],
            "scale" : [
                1.040291666984558,
                1.040291666984558,
                1.040291666984558
            ]
        },
        {
            "mesh" : 5,
            "name" : "\u67f1\u4f53.002",
            "rotation" : [
                0,
                0,
                -0.7071067690849304,
                0.7071068286895752
            ],
            "scale" : [
                1.065699815750122,
                1.065699815750122,
                1.065699815750122
            ]
        },
        {
            "mesh" : 6,
            "name" : "\u67f1\u4f53.003",
            "rotation" : [
                0,
                0,
                -0.7071067690849304,
                0.7071068286895752
            ]
        }
    ],
    "meshes" : [
        {
            "name" : "\u7acb\u65b9\u4f53.003",
            "primitives" : [
                {
                    "attributes" : {
                        "POSITION" : 0,
                        "NORMAL" : 1,
                        "TEXCOORD_0" : 2
                    },
                    "indices" : 3
                }
            ]
        },
        {
            "name" : "\u7acb\u65b9\u4f53.004",
            "primitives" : [
                {
                    "attributes" : {
                        "POSITION" : 4,
                        "NORMAL" : 5,
                        "TEXCOORD_0" : 6
                    },
                    "indices" : 7
                }
            ]
        },
        {
            "name" : "\u7acb\u65b9\u4f53.005",
            "primitives" : [
                {
                    "attributes" : {
                        "POSITION" : 8,
                        "NORMAL" : 9,
                        "TEXCOORD_0" : 10
                    },
                    "indices" : 11
                }
            ]
        },
        {
            "name" : "\u67f1\u4f53.001",
            "primitives" : [
                {
                    "attributes" : {
                        "POSITION" : 12,
                        "NORMAL" : 13,
                        "TEXCOORD_0" : 14
                    },
                    "indices" : 15
                }
            ]
        },
        {
            "name" : "\u67f1\u4f53.003",
            "primitives" : [
                {
                    "attributes" : {
                        "POSITION" : 16,
                        "NORMAL" : 17,
                        "TEXCOORD_0" : 18
                    },
                    "indices" : 19
                }
            ]
        },
        {
            "name" : "\u67f1\u4f53.004",
            "primitives" : [
                {
                    "attributes" : {
                        "POSITION" : 20,
                        "NORMAL" : 21,
                        "TEXCOORD_0" : 22
                    },
                    "indices" : 23
                }
            ]
        },
        {
            "name" : "\u67f1\u4f53.005",
            "primitives" : [
                {
                    "attributes" : {
                        "POSITION" : 24,
                        "NORMAL" : 25,
                        "TEXCOORD_0" : 26
                    },
                    "indices" : 27
                }
            ]
        }
    ],
    "accessors" : [
        {
            "bufferView" : 0,
            "componentType" : 5126,
            "count" : 106,
            "max" : [
                5.760351657867432,
                -0.5531058311462402,
                0.9385443925857544
            ],
            "min" : [
                -2.5251755714416504,
                -1.031304121017456,
                -0.9329111576080322
            ],
            "type" : "VEC3"
        },
        {
            "bufferView" : 1,
            "componentType" : 5126,
            "count" : 106,
            "type" : "VEC3"
        },
        {
            "bufferView" : 2,
            "componentType" : 5126,
            "count" : 106,
            "type" : "VEC2"
        },
        {
            "bufferView" : 3,
            "componentType" : 5123,
            "count" : 444,
            "type" : "SCALAR"
        },
        {
            "bufferView" : 4,
            "componentType" : 5126,
            "count" : 81,
            "max" : [
                1,
                1,
                1
            ],
            "min" : [
                -1,
                -0.9980250000953674,
                -1
            ],
            "type" : "VEC3"
        },
        {
            "bufferView" : 5,
            "componentType" : 5126,
            "count" : 81,
            "type" : "VEC3"
        },
        {
            "bufferView" : 6,
            "componentType" : 5126,
            "count" : 81,
            "type" : "VEC2"
        },
        {
            "bufferView" : 7,
            "componentType" : 5123,
            "count" : 276,
            "type" : "SCALAR"
        },
        {
            "bufferView" : 8,
            "componentType" : 5126,
            "count" : 82,
            "max" : [
                1.0004273653030396,
                0.8512946963310242,
                1.8733490705490112
            ],
            "min" : [
                -1.0340114831924438,
                -0.5540082454681396,
                -1.0001944303512573
            ],
            "type" : "VEC3"
        },
        {
            "bufferView" : 9,
            "componentType" : 5126,
            "count" : 82,
            "type" : "VEC3"
        },
        {
            "bufferView" : 10,
            "componentType" : 5126,
            "count" : 82,
            "type" : "VEC2"
        },
        {
            "bufferView" : 11,
            "componentType" : 5123,
            "count" : 318,
            "type" : "SCALAR"
        },
        {
            "bufferView" : 12,
            "componentType" : 5126,
            "count" : 256,
            "max" : [
                1.0000004768371582,
                7.584689617156982,
                1
            ],
            "min" : [
                -1.0000001192092896,
                -1.3284883499145508,
                -1
            ],
            "type" : "VEC3"
        },
        {
            "bufferView" : 13,
            "componentType" : 5126,
            "count" : 256,
            "type" : "VEC3"
        },
        {
            "bufferView" : 14,
            "componentType" : 5126,
            "count" : 256,
            "type" : "VEC2"
        },
        {
            "bufferView" : 15,
            "componentType" : 5123,
            "count" : 384,
            "type" : "SCALAR"
        },
        {
            "bufferView" : 16,
            "componentType" : 5126,
            "count" : 773,
            "max" : [
                1.0856667757034302,
                -0.9682143926620483,
                1.0856667757034302
            ],
            "min" : [
                -1.0856670141220093,
                -1.7125900983810425,
                -1.0856667757034302
            ],
            "type" : "VEC3"
        },
        {
            "bufferView" : 17,
            "componentType" : 5126,
            "count" : 773,
            "type" : "VEC3"
        },
        {
            "bufferView" : 18,
            "componentType" : 5126,
            "count" : 773,
            "type" : "VEC2"
        },
        {
            "bufferView" : 19,
            "componentType" : 5123,
            "count" : 1296,
            "type" : "SCALAR"
        },
        {
            "bufferView" : 20,
            "componentType" : 5126,
            "count" : 90,
            "max" : [
                0.9999999403953552,
                -1.3284881114959717,
                1
            ],
            "min" : [
                -1.000000238418579,
                -3.383937120437622,
                -1
            ],
            "type" : "VEC3"
        },
        {
            "bufferView" : 21,
            "componentType" : 5126,
            "count" : 90,
            "type" : "VEC3"
        },
        {
            "bufferView" : 22,
            "componentType" : 5126,
            "count" : 90,
            "type" : "VEC2"
        },
        {
            "bufferView" : 23,
            "componentType" : 5123,
            "count" : 306,
            "type" : "SCALAR"
        },
        {
            "bufferView" : 24,
            "componentType" : 5126,
            "count" : 40,
            "max" : [
                0.5299566388130188,
                8.502427101135254,
                0.5135513544082642
            ],
            "min" : [
                -0.4937272369861603,
                7.505250453948975,
                -0.5299480557441711
            ],
            "type" : "VEC3"
        },
        {
            "bufferView" : 25,
            "componentType" : 5126,
            "count" : 40,
            "type" : "VEC3"
        },
        {
            "bufferView" : 26,
            "componentType" : 5126,
            "count" : 40,
            "type" : "VEC2"
        },
        {
            "bufferView" : 27,
            "componentType" : 5123,
            "count" : 66,
            "type" : "SCALAR"
        }
    ],
    "bufferViews" : [
        {
            "buffer" : 0,
            "byteLength" : 1272,
            "byteOffset" : 0
        },
        {
            "buffer" : 0,
            "byteLength" : 1272,
            "byteOffset" : 1272
        },
        {
            "buffer" : 0,
            "byteLength" : 848,
            "byteOffset" : 2544
        },
        {
            "buffer" : 0,
            "byteLength" : 888,
            "byteOffset" : 3392
        },
        {
            "buffer" : 0,
            "byteLength" : 972,
            "byteOffset" : 4280
        },
        {
            "buffer" : 0,
            "byteLength" : 972,
            "byteOffset" : 5252
        },
        {
            "buffer" : 0,
            "byteLength" : 648,
            "byteOffset" : 6224
        },
        {
            "buffer" : 0,
            "byteLength" : 552,
            "byteOffset" : 6872
        },
        {
            "buffer" : 0,
            "byteLength" : 984,
            "byteOffset" : 7424
        },
        {
            "buffer" : 0,
            "byteLength" : 984,
            "byteOffset" : 8408
        },
        {
            "buffer" : 0,
            "byteLength" : 656,
            "byteOffset" : 9392
        },
        {
            "buffer" : 0,
            "byteLength" : 636,
            "byteOffset" : 10048
        },
        {
            "buffer" : 0,
            "byteLength" : 3072,
            "byteOffset" : 10684
        },
        {
            "buffer" : 0,
            "byteLength" : 3072,
            "byteOffset" : 13756
        },
        {
            "buffer" : 0,
            "byteLength" : 2048,
            "byteOffset" : 16828
        },
        {
            "buffer" : 0,
            "byteLength" : 768,
            "byteOffset" : 18876
        },
        {
            "buffer" : 0,
            "byteLength" : 9276,
            "byteOffset" : 19644
        },
        {
            "buffer" : 0,
            "byteLength" : 9276,
            "byteOffset" : 28920
        },
        {
            "buffer" : 0,
            "byteLength" : 6184,
            "byteOffset" : 38196
        },
        {
            "buffer" : 0,
            "byteLength" : 2592,
            "byteOffset" : 44380
        },
        {
            "buffer" : 0,
            "byteLength" : 1080,
            "byteOffset" : 46972
        },
        {
            "buffer" : 0,
            "byteLength" : 1080,
            "byteOffset" : 48052
        },
        {
            "buffer" : 0,
            "byteLength" : 720,
            "byteOffset" : 49132
        },
        {
            "buffer" : 0,
            "byteLength" : 612,
            "byteOffset" : 49852
        },
        {
            "buffer" : 0,
            "byteLength" : 480,
            "byteOffset" : 50464
        },
        {
            "buffer" : 0,
            "byteLength" : 480,
            "byteOffset" : 50944
        },
        {
            "buffer" : 0,
            "byteLength" : 320,
            "byteOffset" : 51424
        },
        {
            "buffer" : 0,
            "byteLength" : 132,
            "byteOffset" : 51744
        }
    ],
    "buffers" : [
        {
            "byteLength" : 51876,
            "uri" : "data:application/octet-stream;base64,"
        }
    ]
}
