{
    "asset" : {
        "generator" : "Khronos glTF Blender I/O v1.8.19",
        "version" : "2.0"
    },
    "scene" : 0,
    "scenes" : [
        {
            "name" : "Scene",
            "nodes" : [
                0,
                1,
                2,
                3
            ]
        }
    ],
    "nodes" : [
        {
            "mesh" : 0,
            "name" : "\u5e73\u9762",
            "rotation" : [
                0.707102358341217,
                -0.002481811447069049,
                -0.0025060796178877354,
                0.7071024179458618
            ],
            "scale" : [
                1.0000486373901367,
                1,
                1.7191392183303833
            ],
            "translation" : [
                -0.08779621124267578,
                0.3279011845588684,
                -0.20537304878234863
            ]
        },
        {
            "mesh" : 1,
            "name" : "\u5e73\u9762.001",
            "rotation" : [
                0.707102358341217,
                -0.002481811447069049,
                -0.0025060796178877354,
                0.7071024179458618
            ],
            "scale" : [
                1.0000486373901367,
                1,
                1.7191392183303833
            ],
            "translation" : [
                -0.08779621124267578,
                0.3279011845588684,
                -0.20537304878234863
            ]
        },
        {
            "mesh" : 2,
            "name" : "\u7acb\u65b9\u4f53",
            "scale" : [
                -0.019083602353930473,
                -0.09837329387664795,
                -0.04129147529602051
            ],
            "translation" : [
                0.9323849678039551,
                1.3286317586898804,
                -0.13366618752479553
            ]
        },
        {
            "mesh" : 3,
            "name" : "\u7acb\u65b9\u4f53.001",
            "scale" : [
                -0.019083602353930473,
                -0.09837329387664795,
                -0.04129147529602051
            ],
            "translation" : [
                0.9323849678039551,
                1.0357425212860107,
                -0.13366618752479553
            ]
        }
    ],
    "materials" : [
        {
            "doubleSided" : true,
            "name" : "\u6750\u8d28.001",
            "pbrMetallicRoughness" : {
                "baseColorFactor" : [
                    0.06071971356868744,
                    0.06071971356868744,
                    0.06071971356868744,
                    1
                ],
                "metallicFactor" : 0.6666666865348816,
                "roughnessFactor" : 0.5
            }
        },
        {
            "doubleSided" : true,
            "name" : "\u6750\u8d28",
            "pbrMetallicRoughness" : {
                "baseColorTexture" : {
                    "index" : 0
                },
                "metallicFactor" : 0,
                "roughnessFactor" : 0.5
            }
        }
    ],
    "meshes" : [
        {
            "name" : "\u5e73\u9762",
            "primitives" : [
                {
                    "attributes" : {
                        "POSITION" : 0,
                        "NORMAL" : 1,
                        "TEXCOORD_0" : 2
                    },
                    "indices" : 3,
                    "material" : 0
                }
            ]
        },
        {
            "name" : "\u5e73\u9762.005",
            "primitives" : [
                {
                    "attributes" : {
                        "POSITION" : 4,
                        "NORMAL" : 5,
                        "TEXCOORD_0" : 6
                    },
                    "indices" : 7,
                    "material" : 1
                }
            ]
        },
        {
            "name" : "\u7acb\u65b9\u4f53",
            "primitives" : [
                {
                    "attributes" : {
                        "POSITION" : 8,
                        "NORMAL" : 9,
                        "TEXCOORD_0" : 10
                    },
                    "indices" : 11,
                    "material" : 0
                }
            ]
        },
        {
            "name" : "\u7acb\u65b9\u4f53.001",
            "primitives" : [
                {
                    "attributes" : {
                        "POSITION" : 12,
                        "NORMAL" : 13,
                        "TEXCOORD_0" : 14
                    },
                    "indices" : 11,
                    "material" : 0
                }
            ]
        }
    ],
    "textures" : [
        {
            "sampler" : 0,
            "source" : 0
        }
    ],
    "images" : [
        {
            "mimeType" : "image/png",
            "name" : "123",
            "uri" : "123.png"
        }
    ],
    "accessors" : [
        {
            "bufferView" : 0,
            "componentType" : 5126,
            "count" : 216,
            "max" : [
                1,
                0.15068401396274567,
                1
            ],
            "min" : [
                -1,
                0,
                -1
            ],
            "type" : "VEC3"
        },
        {
            "bufferView" : 1,
            "componentType" : 5126,
            "count" : 216,
            "type" : "VEC3"
        },
        {
            "bufferView" : 2,
            "componentType" : 5126,
            "count" : 216,
            "type" : "VEC2"
        },
        {
            "bufferView" : 3,
            "componentType" : 5123,
            "count" : 354,
            "type" : "SCALAR"
        },
        {
            "bufferView" : 4,
            "componentType" : 5126,
            "count" : 24,
            "max" : [
                0.908596932888031,
                0.15068401396274567,
                0.9291632771492004
            ],
            "min" : [
                -0.905064046382904,
                0.15068401396274567,
                -0.8844975829124451
            ],
            "type" : "VEC3"
        },
        {
            "bufferView" : 5,
            "componentType" : 5126,
            "count" : 24,
            "type" : "VEC3"
        },
        {
            "bufferView" : 6,
            "componentType" : 5126,
            "count" : 24,
            "type" : "VEC2"
        },
        {
            "bufferView" : 7,
            "componentType" : 5123,
            "count" : 66,
            "type" : "SCALAR"
        },
        {
            "bufferView" : 8,
            "componentType" : 5126,
            "count" : 24,
            "max" : [
                1,
                1,
                1
            ],
            "min" : [
                -1,
                -1,
                -1
            ],
            "type" : "VEC3"
        },
        {
            "bufferView" : 9,
            "componentType" : 5126,
            "count" : 24,
            "type" : "VEC3"
        },
        {
            "bufferView" : 10,
            "componentType" : 5126,
            "count" : 24,
            "type" : "VEC2"
        },
        {
            "bufferView" : 11,
            "componentType" : 5123,
            "count" : 36,
            "type" : "SCALAR"
        },
        {
            "bufferView" : 12,
            "componentType" : 5126,
            "count" : 24,
            "max" : [
                1,
                1,
                1
            ],
            "min" : [
                -1,
                -1,
                -1
            ],
            "type" : "VEC3"
        },
        {
            "bufferView" : 13,
            "componentType" : 5126,
            "count" : 24,
            "type" : "VEC3"
        },
        {
            "bufferView" : 14,
            "componentType" : 5126,
            "count" : 24,
            "type" : "VEC2"
        }
    ],
    "bufferViews" : [
        {
            "buffer" : 0,
            "byteLength" : 2592,
            "byteOffset" : 0
        },
        {
            "buffer" : 0,
            "byteLength" : 2592,
            "byteOffset" : 2592
        },
        {
            "buffer" : 0,
            "byteLength" : 1728,
            "byteOffset" : 5184
        },
        {
            "buffer" : 0,
            "byteLength" : 708,
            "byteOffset" : 6912
        },
        {
            "buffer" : 0,
            "byteLength" : 288,
            "byteOffset" : 7620
        },
        {
            "buffer" : 0,
            "byteLength" : 288,
            "byteOffset" : 7908
        },
        {
            "buffer" : 0,
            "byteLength" : 192,
            "byteOffset" : 8196
        },
        {
            "buffer" : 0,
            "byteLength" : 132,
            "byteOffset" : 8388
        },
        {
            "buffer" : 0,
            "byteLength" : 288,
            "byteOffset" : 8520
        },
        {
            "buffer" : 0,
            "byteLength" : 288,
            "byteOffset" : 8808
        },
        {
            "buffer" : 0,
            "byteLength" : 192,
            "byteOffset" : 9096
        },
        {
            "buffer" : 0,
            "byteLength" : 72,
            "byteOffset" : 9288
        },
        {
            "buffer" : 0,
            "byteLength" : 288,
            "byteOffset" : 9360
        },
        {
            "buffer" : 0,
            "byteLength" : 288,
            "byteOffset" : 9648
        },
        {
            "buffer" : 0,
            "byteLength" : 192,
            "byteOffset" : 9936
        }
    ],
    "samplers" : [
        {
            "magFilter" : 9729,
            "minFilter" : 9987
        }
    ],
    "buffers" : [
        {
            "byteLength" : 10128,
            "uri" : "3.bin"
        }
    ]
}
